<?xml version="1.0" encoding="utf-8" standalone="no"?>
<!DOCTYPE svg PUBLIC "-//W3C//DTD SVG 1.1//EN"
  "http://www.w3.org/Graphics/SVG/1.1/DTD/svg11.dtd">
<svg xmlns:xlink="http://www.w3.org/1999/xlink" width="591.983464pt" height="444.131875pt" viewBox="0 0 591.983464 444.131875" xmlns="http://www.w3.org/2000/svg" version="1.1">
 <metadata>
  <rdf:RDF xmlns:dc="http://purl.org/dc/elements/1.1/" xmlns:cc="http://creativecommons.org/ns#" xmlns:rdf="http://www.w3.org/1999/02/22-rdf-syntax-ns#">
   <cc:Work>
    <dc:type rdf:resource="http://purl.org/dc/dcmitype/StillImage"/>
    <dc:date>2026-04-25T08:30:36.399800</dc:date>
    <dc:format>image/svg+xml</dc:format>
    <dc:creator>
     <cc:Agent>
      <dc:title>Matplotlib v3.7.1, https://matplotlib.org/</dc:title>
     </cc:Agent>
    </dc:creator>
   </cc:Work>
  </rdf:RDF>
 </metadata>
 <defs>
  <style type="text/css">*{stroke-linejoin: round; stroke-linecap: butt}</style>
 </defs>
 <g id="figure_1">
  <g id="patch_1">
   <path d="M 0 444.131875 
L 591.983464 444.131875 
L 591.983464 0 
L 0 0 
z
" style="fill: #ffffff"/>
  </g>
  <g id="axes_1">
   <g id="patch_2">
    <path d="M 46.950469 382.718125 
L 569.612598 382.718125 
L 569.612598 30.318125 
L 46.950469 30.318125 
z
" style="fill: #ffffff"/>
   </g>
   <g id="matplotlib.axis_1">
    <g id="xtick_1">
     <g id="line2d_1">
      <path d="M 134.772655 382.718125 
L 134.772655 30.318125 
" clip-path="url(#p0eaeab1531)" style="fill: none; stroke: #e0e0e0; stroke-opacity: 0.7; stroke-width: 0.5; stroke-linecap: square"/>
     </g>
     <g id="line2d_2">
      <defs>
       <path id="m8227f164e5" d="M 0 0 
L 0 3.5 
" style="stroke: #333333; stroke-width: 0.8"/>
      </defs>
      <g>
       <use xlink:href="#m8227f164e5" x="134.772655" y="382.718125" style="fill: #333333; stroke: #333333; stroke-width: 0.8"/>
      </g>
     </g>
     <g id="text_1">
      <!-- −8 -->
      <g style="fill: #333333" transform="translate(128.138671 396.556719) scale(0.09 -0.09)">
       <defs>
        <path id="DejaVuSans-2212" d="M 678 2272 
L 4684 2272 
L 4684 1741 
L 678 1741 
L 678 2272 
z
" transform="scale(0.015625)"/>
        <path id="DejaVuSans-38" d="M 2034 2216 
Q 1584 2216 1326 1975 
Q 1069 1734 1069 1313 
Q 1069 891 1326 650 
Q 1584 409 2034 409 
Q 2484 409 2743 651 
Q 3003 894 3003 1313 
Q 3003 1734 2745 1975 
Q 2488 2216 2034 2216 
z
M 1403 2484 
Q 997 2584 770 2862 
Q 544 3141 544 3541 
Q 544 4100 942 4425 
Q 1341 4750 2034 4750 
Q 2731 4750 3128 4425 
Q 3525 4100 3525 3541 
Q 3525 3141 3298 2862 
Q 3072 2584 2669 2484 
Q 3125 2378 3379 2068 
Q 3634 1759 3634 1313 
Q 3634 634 3220 271 
Q 2806 -91 2034 -91 
Q 1263 -91 848 271 
Q 434 634 434 1313 
Q 434 1759 690 2068 
Q 947 2378 1403 2484 
z
M 1172 3481 
Q 1172 3119 1398 2916 
Q 1625 2713 2034 2713 
Q 2441 2713 2670 2916 
Q 2900 3119 2900 3481 
Q 2900 3844 2670 4047 
Q 2441 4250 2034 4250 
Q 1625 4250 1398 4047 
Q 1172 3844 1172 3481 
z
" transform="scale(0.015625)"/>
       </defs>
       <use xlink:href="#DejaVuSans-2212"/>
       <use xlink:href="#DejaVuSans-38" x="83.789062"/>
      </g>
     </g>
    </g>
    <g id="xtick_2">
     <g id="line2d_3">
      <path d="M 241.54735 382.718125 
L 241.54735 30.318125 
" clip-path="url(#p0eaeab1531)" style="fill: none; stroke: #e0e0e0; stroke-opacity: 0.7; stroke-width: 0.5; stroke-linecap: square"/>
     </g>
     <g id="line2d_4">
      <g>
       <use xlink:href="#m8227f164e5" x="241.54735" y="382.718125" style="fill: #333333; stroke: #333333; stroke-width: 0.8"/>
      </g>
     </g>
     <g id="text_2">
      <!-- −6 -->
      <g style="fill: #333333" transform="translate(234.913365 396.556719) scale(0.09 -0.09)">
       <defs>
        <path id="DejaVuSans-36" d="M 2113 2584 
Q 1688 2584 1439 2293 
Q 1191 2003 1191 1497 
Q 1191 994 1439 701 
Q 1688 409 2113 409 
Q 2538 409 2786 701 
Q 3034 994 3034 1497 
Q 3034 2003 2786 2293 
Q 2538 2584 2113 2584 
z
M 3366 4563 
L 3366 3988 
Q 3128 4100 2886 4159 
Q 2644 4219 2406 4219 
Q 1781 4219 1451 3797 
Q 1122 3375 1075 2522 
Q 1259 2794 1537 2939 
Q 1816 3084 2150 3084 
Q 2853 3084 3261 2657 
Q 3669 2231 3669 1497 
Q 3669 778 3244 343 
Q 2819 -91 2113 -91 
Q 1303 -91 875 529 
Q 447 1150 447 2328 
Q 447 3434 972 4092 
Q 1497 4750 2381 4750 
Q 2619 4750 2861 4703 
Q 3103 4656 3366 4563 
z
" transform="scale(0.015625)"/>
       </defs>
       <use xlink:href="#DejaVuSans-2212"/>
       <use xlink:href="#DejaVuSans-36" x="83.789062"/>
      </g>
     </g>
    </g>
    <g id="xtick_3">
     <g id="line2d_5">
      <path d="M 348.322044 382.718125 
L 348.322044 30.318125 
" clip-path="url(#p0eaeab1531)" style="fill: none; stroke: #e0e0e0; stroke-opacity: 0.7; stroke-width: 0.5; stroke-linecap: square"/>
     </g>
     <g id="line2d_6">
      <g>
       <use xlink:href="#m8227f164e5" x="348.322044" y="382.718125" style="fill: #333333; stroke: #333333; stroke-width: 0.8"/>
      </g>
     </g>
     <g id="text_3">
      <!-- −4 -->
      <g style="fill: #333333" transform="translate(341.68806 396.556719) scale(0.09 -0.09)">
       <defs>
        <path id="DejaVuSans-34" d="M 2419 4116 
L 825 1625 
L 2419 1625 
L 2419 4116 
z
M 2253 4666 
L 3047 4666 
L 3047 1625 
L 3713 1625 
L 3713 1100 
L 3047 1100 
L 3047 0 
L 2419 0 
L 2419 1100 
L 313 1100 
L 313 1709 
L 2253 4666 
z
" transform="scale(0.015625)"/>
       </defs>
       <use xlink:href="#DejaVuSans-2212"/>
       <use xlink:href="#DejaVuSans-34" x="83.789062"/>
      </g>
     </g>
    </g>
    <g id="xtick_4">
     <g id="line2d_7">
      <path d="M 455.096739 382.718125 
L 455.096739 30.318125 
" clip-path="url(#p0eaeab1531)" style="fill: none; stroke: #e0e0e0; stroke-opacity: 0.7; stroke-width: 0.5; stroke-linecap: square"/>
     </g>
     <g id="line2d_8">
      <g>
       <use xlink:href="#m8227f164e5" x="455.096739" y="382.718125" style="fill: #333333; stroke: #333333; stroke-width: 0.8"/>
      </g>
     </g>
     <g id="text_4">
      <!-- −2 -->
      <g style="fill: #333333" transform="translate(448.462754 396.556719) scale(0.09 -0.09)">
       <defs>
        <path id="DejaVuSans-32" d="M 1228 531 
L 3431 531 
L 3431 0 
L 469 0 
L 469 531 
Q 828 903 1448 1529 
Q 2069 2156 2228 2338 
Q 2531 2678 2651 2914 
Q 2772 3150 2772 3378 
Q 2772 3750 2511 3984 
Q 2250 4219 1831 4219 
Q 1534 4219 1204 4116 
Q 875 4013 500 3803 
L 500 4441 
Q 881 4594 1212 4672 
Q 1544 4750 1819 4750 
Q 2544 4750 2975 4387 
Q 3406 4025 3406 3419 
Q 3406 3131 3298 2873 
Q 3191 2616 2906 2266 
Q 2828 2175 2409 1742 
Q 1991 1309 1228 531 
z
" transform="scale(0.015625)"/>
       </defs>
       <use xlink:href="#DejaVuSans-2212"/>
       <use xlink:href="#DejaVuSans-32" x="83.789062"/>
      </g>
     </g>
    </g>
    <g id="xtick_5">
     <g id="line2d_9">
      <path d="M 561.871433 382.718125 
L 561.871433 30.318125 
" clip-path="url(#p0eaeab1531)" style="fill: none; stroke: #e0e0e0; stroke-opacity: 0.7; stroke-width: 0.5; stroke-linecap: square"/>
     </g>
     <g id="line2d_10">
      <g>
       <use xlink:href="#m8227f164e5" x="561.871433" y="382.718125" style="fill: #333333; stroke: #333333; stroke-width: 0.8"/>
      </g>
     </g>
     <g id="text_5">
      <!-- 0 -->
      <g style="fill: #333333" transform="translate(559.008308 396.556719) scale(0.09 -0.09)">
       <defs>
        <path id="DejaVuSans-30" d="M 2034 4250 
Q 1547 4250 1301 3770 
Q 1056 3291 1056 2328 
Q 1056 1369 1301 889 
Q 1547 409 2034 409 
Q 2525 409 2770 889 
Q 3016 1369 3016 2328 
Q 3016 3291 2770 3770 
Q 2525 4250 2034 4250 
z
M 2034 4750 
Q 2819 4750 3233 4129 
Q 3647 3509 3647 2328 
Q 3647 1150 3233 529 
Q 2819 -91 2034 -91 
Q 1250 -91 836 529 
Q 422 1150 422 2328 
Q 422 3509 836 4129 
Q 1250 4750 2034 4750 
z
" transform="scale(0.015625)"/>
       </defs>
       <use xlink:href="#DejaVuSans-30"/>
      </g>
     </g>
    </g>
    <g id="text_6">
     <!-- Producer price (NACE C20), YoY change vs 2025-02 (%) -->
     <g transform="translate(153.070596 410.026875) scale(0.1 -0.1)">
      <defs>
       <path id="DejaVuSans-Bold-50" d="M 588 4666 
L 2584 4666 
Q 3475 4666 3951 4270 
Q 4428 3875 4428 3144 
Q 4428 2409 3951 2014 
Q 3475 1619 2584 1619 
L 1791 1619 
L 1791 0 
L 588 0 
L 588 4666 
z
M 1791 3794 
L 1791 2491 
L 2456 2491 
Q 2806 2491 2997 2661 
Q 3188 2831 3188 3144 
Q 3188 3456 2997 3625 
Q 2806 3794 2456 3794 
L 1791 3794 
z
" transform="scale(0.015625)"/>
       <path id="DejaVuSans-Bold-72" d="M 3138 2547 
Q 2991 2616 2845 2648 
Q 2700 2681 2553 2681 
Q 2122 2681 1889 2404 
Q 1656 2128 1656 1613 
L 1656 0 
L 538 0 
L 538 3500 
L 1656 3500 
L 1656 2925 
Q 1872 3269 2151 3426 
Q 2431 3584 2822 3584 
Q 2878 3584 2943 3579 
Q 3009 3575 3134 3559 
L 3138 2547 
z
" transform="scale(0.015625)"/>
       <path id="DejaVuSans-Bold-6f" d="M 2203 2784 
Q 1831 2784 1636 2517 
Q 1441 2250 1441 1747 
Q 1441 1244 1636 976 
Q 1831 709 2203 709 
Q 2569 709 2762 976 
Q 2956 1244 2956 1747 
Q 2956 2250 2762 2517 
Q 2569 2784 2203 2784 
z
M 2203 3584 
Q 3106 3584 3614 3096 
Q 4122 2609 4122 1747 
Q 4122 884 3614 396 
Q 3106 -91 2203 -91 
Q 1297 -91 786 396 
Q 275 884 275 1747 
Q 275 2609 786 3096 
Q 1297 3584 2203 3584 
z
" transform="scale(0.015625)"/>
       <path id="DejaVuSans-Bold-64" d="M 2919 2988 
L 2919 4863 
L 4044 4863 
L 4044 0 
L 2919 0 
L 2919 506 
Q 2688 197 2409 53 
Q 2131 -91 1766 -91 
Q 1119 -91 703 423 
Q 288 938 288 1747 
Q 288 2556 703 3070 
Q 1119 3584 1766 3584 
Q 2128 3584 2408 3439 
Q 2688 3294 2919 2988 
z
M 2181 722 
Q 2541 722 2730 984 
Q 2919 1247 2919 1747 
Q 2919 2247 2730 2509 
Q 2541 2772 2181 2772 
Q 1825 2772 1636 2509 
Q 1447 2247 1447 1747 
Q 1447 1247 1636 984 
Q 1825 722 2181 722 
z
" transform="scale(0.015625)"/>
       <path id="DejaVuSans-Bold-75" d="M 500 1363 
L 500 3500 
L 1625 3500 
L 1625 3150 
Q 1625 2866 1622 2436 
Q 1619 2006 1619 1863 
Q 1619 1441 1641 1255 
Q 1663 1069 1716 984 
Q 1784 875 1895 815 
Q 2006 756 2150 756 
Q 2500 756 2700 1025 
Q 2900 1294 2900 1772 
L 2900 3500 
L 4019 3500 
L 4019 0 
L 2900 0 
L 2900 506 
Q 2647 200 2364 54 
Q 2081 -91 1741 -91 
Q 1134 -91 817 281 
Q 500 653 500 1363 
z
" transform="scale(0.015625)"/>
       <path id="DejaVuSans-Bold-63" d="M 3366 3391 
L 3366 2478 
Q 3138 2634 2908 2709 
Q 2678 2784 2431 2784 
Q 1963 2784 1702 2511 
Q 1441 2238 1441 1747 
Q 1441 1256 1702 982 
Q 1963 709 2431 709 
Q 2694 709 2930 787 
Q 3166 866 3366 1019 
L 3366 103 
Q 3103 6 2833 -42 
Q 2563 -91 2291 -91 
Q 1344 -91 809 395 
Q 275 881 275 1747 
Q 275 2613 809 3098 
Q 1344 3584 2291 3584 
Q 2566 3584 2833 3536 
Q 3100 3488 3366 3391 
z
" transform="scale(0.015625)"/>
       <path id="DejaVuSans-Bold-65" d="M 4031 1759 
L 4031 1441 
L 1416 1441 
Q 1456 1047 1700 850 
Q 1944 653 2381 653 
Q 2734 653 3104 758 
Q 3475 863 3866 1075 
L 3866 213 
Q 3469 63 3072 -14 
Q 2675 -91 2278 -91 
Q 1328 -91 801 392 
Q 275 875 275 1747 
Q 275 2603 792 3093 
Q 1309 3584 2216 3584 
Q 3041 3584 3536 3087 
Q 4031 2591 4031 1759 
z
M 2881 2131 
Q 2881 2450 2695 2645 
Q 2509 2841 2209 2841 
Q 1884 2841 1681 2658 
Q 1478 2475 1428 2131 
L 2881 2131 
z
" transform="scale(0.015625)"/>
       <path id="DejaVuSans-Bold-20" transform="scale(0.015625)"/>
       <path id="DejaVuSans-Bold-70" d="M 1656 506 
L 1656 -1331 
L 538 -1331 
L 538 3500 
L 1656 3500 
L 1656 2988 
Q 1888 3294 2169 3439 
Q 2450 3584 2816 3584 
Q 3463 3584 3878 3070 
Q 4294 2556 4294 1747 
Q 4294 938 3878 423 
Q 3463 -91 2816 -91 
Q 2450 -91 2169 54 
Q 1888 200 1656 506 
z
M 2400 2772 
Q 2041 2772 1848 2508 
Q 1656 2244 1656 1747 
Q 1656 1250 1848 986 
Q 2041 722 2400 722 
Q 2759 722 2948 984 
Q 3138 1247 3138 1747 
Q 3138 2247 2948 2509 
Q 2759 2772 2400 2772 
z
" transform="scale(0.015625)"/>
       <path id="DejaVuSans-Bold-69" d="M 538 3500 
L 1656 3500 
L 1656 0 
L 538 0 
L 538 3500 
z
M 538 4863 
L 1656 4863 
L 1656 3950 
L 538 3950 
L 538 4863 
z
" transform="scale(0.015625)"/>
       <path id="DejaVuSans-Bold-28" d="M 2413 -844 
L 1484 -844 
Q 1006 -72 778 623 
Q 550 1319 550 2003 
Q 550 2688 779 3389 
Q 1009 4091 1484 4856 
L 2413 4856 
Q 2013 4116 1813 3408 
Q 1613 2700 1613 2009 
Q 1613 1319 1811 609 
Q 2009 -100 2413 -844 
z
" transform="scale(0.015625)"/>
       <path id="DejaVuSans-Bold-4e" d="M 588 4666 
L 1931 4666 
L 3628 1466 
L 3628 4666 
L 4769 4666 
L 4769 0 
L 3425 0 
L 1728 3200 
L 1728 0 
L 588 0 
L 588 4666 
z
" transform="scale(0.015625)"/>
       <path id="DejaVuSans-Bold-41" d="M 3419 850 
L 1538 850 
L 1241 0 
L 31 0 
L 1759 4666 
L 3194 4666 
L 4922 0 
L 3713 0 
L 3419 850 
z
M 1838 1716 
L 3116 1716 
L 2478 3572 
L 1838 1716 
z
" transform="scale(0.015625)"/>
       <path id="DejaVuSans-Bold-43" d="M 4288 256 
Q 3956 84 3597 -3 
Q 3238 -91 2847 -91 
Q 1681 -91 1000 561 
Q 319 1213 319 2328 
Q 319 3447 1000 4098 
Q 1681 4750 2847 4750 
Q 3238 4750 3597 4662 
Q 3956 4575 4288 4403 
L 4288 3438 
Q 3953 3666 3628 3772 
Q 3303 3878 2944 3878 
Q 2300 3878 1931 3465 
Q 1563 3053 1563 2328 
Q 1563 1606 1931 1193 
Q 2300 781 2944 781 
Q 3303 781 3628 887 
Q 3953 994 4288 1222 
L 4288 256 
z
" transform="scale(0.015625)"/>
       <path id="DejaVuSans-Bold-45" d="M 588 4666 
L 3834 4666 
L 3834 3756 
L 1791 3756 
L 1791 2888 
L 3713 2888 
L 3713 1978 
L 1791 1978 
L 1791 909 
L 3903 909 
L 3903 0 
L 588 0 
L 588 4666 
z
" transform="scale(0.015625)"/>
       <path id="DejaVuSans-Bold-32" d="M 1844 884 
L 3897 884 
L 3897 0 
L 506 0 
L 506 884 
L 2209 2388 
Q 2438 2594 2547 2791 
Q 2656 2988 2656 3200 
Q 2656 3528 2436 3728 
Q 2216 3928 1850 3928 
Q 1569 3928 1234 3808 
Q 900 3688 519 3450 
L 519 4475 
Q 925 4609 1322 4679 
Q 1719 4750 2100 4750 
Q 2938 4750 3402 4381 
Q 3866 4013 3866 3353 
Q 3866 2972 3669 2642 
Q 3472 2313 2841 1759 
L 1844 884 
z
" transform="scale(0.015625)"/>
       <path id="DejaVuSans-Bold-30" d="M 2944 2338 
Q 2944 3213 2780 3570 
Q 2616 3928 2228 3928 
Q 1841 3928 1675 3570 
Q 1509 3213 1509 2338 
Q 1509 1453 1675 1090 
Q 1841 728 2228 728 
Q 2613 728 2778 1090 
Q 2944 1453 2944 2338 
z
M 4147 2328 
Q 4147 1169 3647 539 
Q 3147 -91 2228 -91 
Q 1306 -91 806 539 
Q 306 1169 306 2328 
Q 306 3491 806 4120 
Q 1306 4750 2228 4750 
Q 3147 4750 3647 4120 
Q 4147 3491 4147 2328 
z
" transform="scale(0.015625)"/>
       <path id="DejaVuSans-Bold-29" d="M 513 -844 
Q 913 -100 1113 609 
Q 1313 1319 1313 2009 
Q 1313 2700 1113 3408 
Q 913 4116 513 4856 
L 1441 4856 
Q 1916 4091 2145 3389 
Q 2375 2688 2375 2003 
Q 2375 1319 2147 623 
Q 1919 -72 1441 -844 
L 513 -844 
z
" transform="scale(0.015625)"/>
       <path id="DejaVuSans-Bold-2c" d="M 653 1209 
L 1778 1209 
L 1778 256 
L 1006 -909 
L 341 -909 
L 653 256 
L 653 1209 
z
" transform="scale(0.015625)"/>
       <path id="DejaVuSans-Bold-59" d="M -63 4666 
L 1253 4666 
L 2316 3003 
L 3378 4666 
L 4697 4666 
L 2919 1966 
L 2919 0 
L 1716 0 
L 1716 1966 
L -63 4666 
z
" transform="scale(0.015625)"/>
       <path id="DejaVuSans-Bold-68" d="M 4056 2131 
L 4056 0 
L 2931 0 
L 2931 347 
L 2931 1625 
Q 2931 2084 2911 2256 
Q 2891 2428 2841 2509 
Q 2775 2619 2662 2680 
Q 2550 2741 2406 2741 
Q 2056 2741 1856 2470 
Q 1656 2200 1656 1722 
L 1656 0 
L 538 0 
L 538 4863 
L 1656 4863 
L 1656 2988 
Q 1909 3294 2193 3439 
Q 2478 3584 2822 3584 
Q 3428 3584 3742 3212 
Q 4056 2841 4056 2131 
z
" transform="scale(0.015625)"/>
       <path id="DejaVuSans-Bold-61" d="M 2106 1575 
Q 1756 1575 1579 1456 
Q 1403 1338 1403 1106 
Q 1403 894 1545 773 
Q 1688 653 1941 653 
Q 2256 653 2472 879 
Q 2688 1106 2688 1447 
L 2688 1575 
L 2106 1575 
z
M 3816 1997 
L 3816 0 
L 2688 0 
L 2688 519 
Q 2463 200 2181 54 
Q 1900 -91 1497 -91 
Q 953 -91 614 226 
Q 275 544 275 1050 
Q 275 1666 698 1953 
Q 1122 2241 2028 2241 
L 2688 2241 
L 2688 2328 
Q 2688 2594 2478 2717 
Q 2269 2841 1825 2841 
Q 1466 2841 1156 2769 
Q 847 2697 581 2553 
L 581 3406 
Q 941 3494 1303 3539 
Q 1666 3584 2028 3584 
Q 2975 3584 3395 3211 
Q 3816 2838 3816 1997 
z
" transform="scale(0.015625)"/>
       <path id="DejaVuSans-Bold-6e" d="M 4056 2131 
L 4056 0 
L 2931 0 
L 2931 347 
L 2931 1631 
Q 2931 2084 2911 2256 
Q 2891 2428 2841 2509 
Q 2775 2619 2662 2680 
Q 2550 2741 2406 2741 
Q 2056 2741 1856 2470 
Q 1656 2200 1656 1722 
L 1656 0 
L 538 0 
L 538 3500 
L 1656 3500 
L 1656 2988 
Q 1909 3294 2193 3439 
Q 2478 3584 2822 3584 
Q 3428 3584 3742 3212 
Q 4056 2841 4056 2131 
z
" transform="scale(0.015625)"/>
       <path id="DejaVuSans-Bold-67" d="M 2919 594 
Q 2688 288 2409 144 
Q 2131 0 1766 0 
Q 1125 0 706 504 
Q 288 1009 288 1791 
Q 288 2575 706 3076 
Q 1125 3578 1766 3578 
Q 2131 3578 2409 3434 
Q 2688 3291 2919 2981 
L 2919 3500 
L 4044 3500 
L 4044 353 
Q 4044 -491 3511 -936 
Q 2978 -1381 1966 -1381 
Q 1638 -1381 1331 -1331 
Q 1025 -1281 716 -1178 
L 716 -306 
Q 1009 -475 1290 -558 
Q 1572 -641 1856 -641 
Q 2406 -641 2662 -400 
Q 2919 -159 2919 353 
L 2919 594 
z
M 2181 2772 
Q 1834 2772 1640 2515 
Q 1447 2259 1447 1791 
Q 1447 1309 1634 1061 
Q 1822 813 2181 813 
Q 2531 813 2725 1069 
Q 2919 1325 2919 1791 
Q 2919 2259 2725 2515 
Q 2531 2772 2181 2772 
z
" transform="scale(0.015625)"/>
       <path id="DejaVuSans-Bold-76" d="M 97 3500 
L 1216 3500 
L 2088 1081 
L 2956 3500 
L 4078 3500 
L 2700 0 
L 1472 0 
L 97 3500 
z
" transform="scale(0.015625)"/>
       <path id="DejaVuSans-Bold-73" d="M 3272 3391 
L 3272 2541 
Q 2913 2691 2578 2766 
Q 2244 2841 1947 2841 
Q 1628 2841 1473 2761 
Q 1319 2681 1319 2516 
Q 1319 2381 1436 2309 
Q 1553 2238 1856 2203 
L 2053 2175 
Q 2913 2066 3209 1816 
Q 3506 1566 3506 1031 
Q 3506 472 3093 190 
Q 2681 -91 1863 -91 
Q 1516 -91 1145 -36 
Q 775 19 384 128 
L 384 978 
Q 719 816 1070 734 
Q 1422 653 1784 653 
Q 2113 653 2278 743 
Q 2444 834 2444 1013 
Q 2444 1163 2330 1236 
Q 2216 1309 1875 1350 
L 1678 1375 
Q 931 1469 631 1722 
Q 331 1975 331 2491 
Q 331 3047 712 3315 
Q 1094 3584 1881 3584 
Q 2191 3584 2531 3537 
Q 2872 3491 3272 3391 
z
" transform="scale(0.015625)"/>
       <path id="DejaVuSans-Bold-35" d="M 678 4666 
L 3669 4666 
L 3669 3781 
L 1638 3781 
L 1638 3059 
Q 1775 3097 1914 3117 
Q 2053 3138 2203 3138 
Q 3056 3138 3531 2711 
Q 4006 2284 4006 1522 
Q 4006 766 3489 337 
Q 2972 -91 2053 -91 
Q 1656 -91 1267 -14 
Q 878 63 494 219 
L 494 1166 
Q 875 947 1217 837 
Q 1559 728 1863 728 
Q 2300 728 2551 942 
Q 2803 1156 2803 1522 
Q 2803 1891 2551 2103 
Q 2300 2316 1863 2316 
Q 1603 2316 1309 2248 
Q 1016 2181 678 2041 
L 678 4666 
z
" transform="scale(0.015625)"/>
       <path id="DejaVuSans-Bold-2d" d="M 347 2297 
L 2309 2297 
L 2309 1388 
L 347 1388 
L 347 2297 
z
" transform="scale(0.015625)"/>
       <path id="DejaVuSans-Bold-25" d="M 4959 1925 
Q 4738 1925 4616 1733 
Q 4494 1541 4494 1184 
Q 4494 825 4614 633 
Q 4734 441 4959 441 
Q 5184 441 5303 633 
Q 5422 825 5422 1184 
Q 5422 1541 5301 1733 
Q 5181 1925 4959 1925 
z
M 4959 2450 
Q 5541 2450 5875 2112 
Q 6209 1775 6209 1184 
Q 6209 594 5875 251 
Q 5541 -91 4959 -91 
Q 4378 -91 4042 251 
Q 3706 594 3706 1184 
Q 3706 1772 4042 2111 
Q 4378 2450 4959 2450 
z
M 2094 -91 
L 1403 -91 
L 4319 4750 
L 5013 4750 
L 2094 -91 
z
M 1453 4750 
Q 2034 4750 2367 4411 
Q 2700 4072 2700 3481 
Q 2700 2891 2367 2550 
Q 2034 2209 1453 2209 
Q 872 2209 539 2550 
Q 206 2891 206 3481 
Q 206 4072 539 4411 
Q 872 4750 1453 4750 
z
M 1453 4225 
Q 1228 4225 1106 4031 
Q 984 3838 984 3481 
Q 984 3122 1106 2926 
Q 1228 2731 1453 2731 
Q 1678 2731 1798 2926 
Q 1919 3122 1919 3481 
Q 1919 3838 1797 4031 
Q 1675 4225 1453 4225 
z
" transform="scale(0.015625)"/>
      </defs>
      <use xlink:href="#DejaVuSans-Bold-50"/>
      <use xlink:href="#DejaVuSans-Bold-72" x="73.291016"/>
      <use xlink:href="#DejaVuSans-Bold-6f" x="122.607422"/>
      <use xlink:href="#DejaVuSans-Bold-64" x="191.308594"/>
      <use xlink:href="#DejaVuSans-Bold-75" x="262.890625"/>
      <use xlink:href="#DejaVuSans-Bold-63" x="334.082031"/>
      <use xlink:href="#DejaVuSans-Bold-65" x="393.359375"/>
      <use xlink:href="#DejaVuSans-Bold-72" x="461.181641"/>
      <use xlink:href="#DejaVuSans-Bold-20" x="510.498047"/>
      <use xlink:href="#DejaVuSans-Bold-70" x="545.3125"/>
      <use xlink:href="#DejaVuSans-Bold-72" x="616.894531"/>
      <use xlink:href="#DejaVuSans-Bold-69" x="666.210938"/>
      <use xlink:href="#DejaVuSans-Bold-63" x="700.488281"/>
      <use xlink:href="#DejaVuSans-Bold-65" x="759.765625"/>
      <use xlink:href="#DejaVuSans-Bold-20" x="827.587891"/>
      <use xlink:href="#DejaVuSans-Bold-28" x="862.402344"/>
      <use xlink:href="#DejaVuSans-Bold-4e" x="908.105469"/>
      <use xlink:href="#DejaVuSans-Bold-41" x="991.796875"/>
      <use xlink:href="#DejaVuSans-Bold-43" x="1069.189453"/>
      <use xlink:href="#DejaVuSans-Bold-45" x="1142.578125"/>
      <use xlink:href="#DejaVuSans-Bold-20" x="1210.888672"/>
      <use xlink:href="#DejaVuSans-Bold-43" x="1245.703125"/>
      <use xlink:href="#DejaVuSans-Bold-32" x="1319.091797"/>
      <use xlink:href="#DejaVuSans-Bold-30" x="1388.671875"/>
      <use xlink:href="#DejaVuSans-Bold-29" x="1458.251953"/>
      <use xlink:href="#DejaVuSans-Bold-2c" x="1503.955078"/>
      <use xlink:href="#DejaVuSans-Bold-20" x="1541.943359"/>
      <use xlink:href="#DejaVuSans-Bold-59" x="1576.757812"/>
      <use xlink:href="#DejaVuSans-Bold-6f" x="1640.044922"/>
      <use xlink:href="#DejaVuSans-Bold-59" x="1708.746094"/>
      <use xlink:href="#DejaVuSans-Bold-20" x="1781.158203"/>
      <use xlink:href="#DejaVuSans-Bold-63" x="1815.972656"/>
      <use xlink:href="#DejaVuSans-Bold-68" x="1875.25"/>
      <use xlink:href="#DejaVuSans-Bold-61" x="1946.441406"/>
      <use xlink:href="#DejaVuSans-Bold-6e" x="2013.921875"/>
      <use xlink:href="#DejaVuSans-Bold-67" x="2085.113281"/>
      <use xlink:href="#DejaVuSans-Bold-65" x="2156.695312"/>
      <use xlink:href="#DejaVuSans-Bold-20" x="2224.517578"/>
      <use xlink:href="#DejaVuSans-Bold-76" x="2259.332031"/>
      <use xlink:href="#DejaVuSans-Bold-73" x="2324.517578"/>
      <use xlink:href="#DejaVuSans-Bold-20" x="2384.039062"/>
      <use xlink:href="#DejaVuSans-Bold-32" x="2418.853516"/>
      <use xlink:href="#DejaVuSans-Bold-30" x="2488.433594"/>
      <use xlink:href="#DejaVuSans-Bold-32" x="2558.013672"/>
      <use xlink:href="#DejaVuSans-Bold-35" x="2627.59375"/>
      <use xlink:href="#DejaVuSans-Bold-2d" x="2697.173828"/>
      <use xlink:href="#DejaVuSans-Bold-30" x="2738.677734"/>
      <use xlink:href="#DejaVuSans-Bold-32" x="2808.257812"/>
      <use xlink:href="#DejaVuSans-Bold-20" x="2877.837891"/>
      <use xlink:href="#DejaVuSans-Bold-28" x="2912.652344"/>
      <use xlink:href="#DejaVuSans-Bold-25" x="2958.355469"/>
      <use xlink:href="#DejaVuSans-Bold-29" x="3058.550781"/>
     </g>
    </g>
   </g>
   <g id="matplotlib.axis_2">
    <g id="ytick_1">
     <g id="line2d_11">
      <path d="M 46.950469 378.676154 
L 569.612598 378.676154 
" clip-path="url(#p0eaeab1531)" style="fill: none; stroke: #e0e0e0; stroke-opacity: 0.7; stroke-width: 0.5; stroke-linecap: square"/>
     </g>
     <g id="line2d_12">
      <defs>
       <path id="m31ded5636a" d="M 0 0 
L -3.5 0 
" style="stroke: #333333; stroke-width: 0.8"/>
      </defs>
      <g>
       <use xlink:href="#m31ded5636a" x="46.950469" y="378.676154" style="fill: #333333; stroke: #333333; stroke-width: 0.8"/>
      </g>
     </g>
     <g id="text_7">
      <!-- −10 -->
      <g style="fill: #333333" transform="translate(20.95625 382.095451) scale(0.09 -0.09)">
       <defs>
        <path id="DejaVuSans-31" d="M 794 531 
L 1825 531 
L 1825 4091 
L 703 3866 
L 703 4441 
L 1819 4666 
L 2450 4666 
L 2450 531 
L 3481 531 
L 3481 0 
L 794 0 
L 794 531 
z
" transform="scale(0.015625)"/>
       </defs>
       <use xlink:href="#DejaVuSans-2212"/>
       <use xlink:href="#DejaVuSans-31" x="83.789062"/>
       <use xlink:href="#DejaVuSans-30" x="147.412109"/>
      </g>
     </g>
    </g>
    <g id="ytick_2">
     <g id="line2d_13">
      <path d="M 46.950469 318.7951 
L 569.612598 318.7951 
" clip-path="url(#p0eaeab1531)" style="fill: none; stroke: #e0e0e0; stroke-opacity: 0.7; stroke-width: 0.5; stroke-linecap: square"/>
     </g>
     <g id="line2d_14">
      <g>
       <use xlink:href="#m31ded5636a" x="46.950469" y="318.7951" style="fill: #333333; stroke: #333333; stroke-width: 0.8"/>
      </g>
     </g>
     <g id="text_8">
      <!-- −8 -->
      <g style="fill: #333333" transform="translate(26.6825 322.214397) scale(0.09 -0.09)">
       <use xlink:href="#DejaVuSans-2212"/>
       <use xlink:href="#DejaVuSans-38" x="83.789062"/>
      </g>
     </g>
    </g>
    <g id="ytick_3">
     <g id="line2d_15">
      <path d="M 46.950469 258.914047 
L 569.612598 258.914047 
" clip-path="url(#p0eaeab1531)" style="fill: none; stroke: #e0e0e0; stroke-opacity: 0.7; stroke-width: 0.5; stroke-linecap: square"/>
     </g>
     <g id="line2d_16">
      <g>
       <use xlink:href="#m31ded5636a" x="46.950469" y="258.914047" style="fill: #333333; stroke: #333333; stroke-width: 0.8"/>
      </g>
     </g>
     <g id="text_9">
      <!-- −6 -->
      <g style="fill: #333333" transform="translate(26.6825 262.333344) scale(0.09 -0.09)">
       <use xlink:href="#DejaVuSans-2212"/>
       <use xlink:href="#DejaVuSans-36" x="83.789062"/>
      </g>
     </g>
    </g>
    <g id="ytick_4">
     <g id="line2d_17">
      <path d="M 46.950469 199.032993 
L 569.612598 199.032993 
" clip-path="url(#p0eaeab1531)" style="fill: none; stroke: #e0e0e0; stroke-opacity: 0.7; stroke-width: 0.5; stroke-linecap: square"/>
     </g>
     <g id="line2d_18">
      <g>
       <use xlink:href="#m31ded5636a" x="46.950469" y="199.032993" style="fill: #333333; stroke: #333333; stroke-width: 0.8"/>
      </g>
     </g>
     <g id="text_10">
      <!-- −4 -->
      <g style="fill: #333333" transform="translate(26.6825 202.45229) scale(0.09 -0.09)">
       <use xlink:href="#DejaVuSans-2212"/>
       <use xlink:href="#DejaVuSans-34" x="83.789062"/>
      </g>
     </g>
    </g>
    <g id="ytick_5">
     <g id="line2d_19">
      <path d="M 46.950469 139.15194 
L 569.612598 139.15194 
" clip-path="url(#p0eaeab1531)" style="fill: none; stroke: #e0e0e0; stroke-opacity: 0.7; stroke-width: 0.5; stroke-linecap: square"/>
     </g>
     <g id="line2d_20">
      <g>
       <use xlink:href="#m31ded5636a" x="46.950469" y="139.15194" style="fill: #333333; stroke: #333333; stroke-width: 0.8"/>
      </g>
     </g>
     <g id="text_11">
      <!-- −2 -->
      <g style="fill: #333333" transform="translate(26.6825 142.571237) scale(0.09 -0.09)">
       <use xlink:href="#DejaVuSans-2212"/>
       <use xlink:href="#DejaVuSans-32" x="83.789062"/>
      </g>
     </g>
    </g>
    <g id="ytick_6">
     <g id="line2d_21">
      <path d="M 46.950469 79.270886 
L 569.612598 79.270886 
" clip-path="url(#p0eaeab1531)" style="fill: none; stroke: #e0e0e0; stroke-opacity: 0.7; stroke-width: 0.5; stroke-linecap: square"/>
     </g>
     <g id="line2d_22">
      <g>
       <use xlink:href="#m31ded5636a" x="46.950469" y="79.270886" style="fill: #333333; stroke: #333333; stroke-width: 0.8"/>
      </g>
     </g>
     <g id="text_12">
      <!-- 0 -->
      <g style="fill: #333333" transform="translate(34.224219 82.690183) scale(0.09 -0.09)">
       <use xlink:href="#DejaVuSans-30"/>
      </g>
     </g>
    </g>
    <g id="text_13">
     <!-- Production volume (NACE C20), YoY change vs 2025-02 (%) -->
     <g transform="translate(14.798438 373.425937) rotate(-90) scale(0.1 -0.1)">
      <defs>
       <path id="DejaVuSans-Bold-74" d="M 1759 4494 
L 1759 3500 
L 2913 3500 
L 2913 2700 
L 1759 2700 
L 1759 1216 
Q 1759 972 1856 886 
Q 1953 800 2241 800 
L 2816 800 
L 2816 0 
L 1856 0 
Q 1194 0 917 276 
Q 641 553 641 1216 
L 641 2700 
L 84 2700 
L 84 3500 
L 641 3500 
L 641 4494 
L 1759 4494 
z
" transform="scale(0.015625)"/>
       <path id="DejaVuSans-Bold-6c" d="M 538 4863 
L 1656 4863 
L 1656 0 
L 538 0 
L 538 4863 
z
" transform="scale(0.015625)"/>
       <path id="DejaVuSans-Bold-6d" d="M 3781 2919 
Q 3994 3244 4286 3414 
Q 4578 3584 4928 3584 
Q 5531 3584 5847 3212 
Q 6163 2841 6163 2131 
L 6163 0 
L 5038 0 
L 5038 1825 
Q 5041 1866 5042 1909 
Q 5044 1953 5044 2034 
Q 5044 2406 4934 2573 
Q 4825 2741 4581 2741 
Q 4263 2741 4089 2478 
Q 3916 2216 3909 1719 
L 3909 0 
L 2784 0 
L 2784 1825 
Q 2784 2406 2684 2573 
Q 2584 2741 2328 2741 
Q 2006 2741 1831 2477 
Q 1656 2213 1656 1722 
L 1656 0 
L 531 0 
L 531 3500 
L 1656 3500 
L 1656 2988 
Q 1863 3284 2130 3434 
Q 2397 3584 2719 3584 
Q 3081 3584 3359 3409 
Q 3638 3234 3781 2919 
z
" transform="scale(0.015625)"/>
      </defs>
      <use xlink:href="#DejaVuSans-Bold-50"/>
      <use xlink:href="#DejaVuSans-Bold-72" x="73.291016"/>
      <use xlink:href="#DejaVuSans-Bold-6f" x="122.607422"/>
      <use xlink:href="#DejaVuSans-Bold-64" x="191.308594"/>
      <use xlink:href="#DejaVuSans-Bold-75" x="262.890625"/>
      <use xlink:href="#DejaVuSans-Bold-63" x="334.082031"/>
      <use xlink:href="#DejaVuSans-Bold-74" x="393.359375"/>
      <use xlink:href="#DejaVuSans-Bold-69" x="441.162109"/>
      <use xlink:href="#DejaVuSans-Bold-6f" x="475.439453"/>
      <use xlink:href="#DejaVuSans-Bold-6e" x="544.140625"/>
      <use xlink:href="#DejaVuSans-Bold-20" x="615.332031"/>
      <use xlink:href="#DejaVuSans-Bold-76" x="650.146484"/>
      <use xlink:href="#DejaVuSans-Bold-6f" x="715.332031"/>
      <use xlink:href="#DejaVuSans-Bold-6c" x="784.033203"/>
      <use xlink:href="#DejaVuSans-Bold-75" x="818.310547"/>
      <use xlink:href="#DejaVuSans-Bold-6d" x="889.501953"/>
      <use xlink:href="#DejaVuSans-Bold-65" x="993.701172"/>
      <use xlink:href="#DejaVuSans-Bold-20" x="1061.523438"/>
      <use xlink:href="#DejaVuSans-Bold-28" x="1096.337891"/>
      <use xlink:href="#DejaVuSans-Bold-4e" x="1142.041016"/>
      <use xlink:href="#DejaVuSans-Bold-41" x="1225.732422"/>
      <use xlink:href="#DejaVuSans-Bold-43" x="1303.125"/>
      <use xlink:href="#DejaVuSans-Bold-45" x="1376.513672"/>
      <use xlink:href="#DejaVuSans-Bold-20" x="1444.824219"/>
      <use xlink:href="#DejaVuSans-Bold-43" x="1479.638672"/>
      <use xlink:href="#DejaVuSans-Bold-32" x="1553.027344"/>
      <use xlink:href="#DejaVuSans-Bold-30" x="1622.607422"/>
      <use xlink:href="#DejaVuSans-Bold-29" x="1692.1875"/>
      <use xlink:href="#DejaVuSans-Bold-2c" x="1737.890625"/>
      <use xlink:href="#DejaVuSans-Bold-20" x="1775.878906"/>
      <use xlink:href="#DejaVuSans-Bold-59" x="1810.693359"/>
      <use xlink:href="#DejaVuSans-Bold-6f" x="1873.980469"/>
      <use xlink:href="#DejaVuSans-Bold-59" x="1942.681641"/>
      <use xlink:href="#DejaVuSans-Bold-20" x="2015.09375"/>
      <use xlink:href="#DejaVuSans-Bold-63" x="2049.908203"/>
      <use xlink:href="#DejaVuSans-Bold-68" x="2109.185547"/>
      <use xlink:href="#DejaVuSans-Bold-61" x="2180.376953"/>
      <use xlink:href="#DejaVuSans-Bold-6e" x="2247.857422"/>
      <use xlink:href="#DejaVuSans-Bold-67" x="2319.048828"/>
      <use xlink:href="#DejaVuSans-Bold-65" x="2390.630859"/>
      <use xlink:href="#DejaVuSans-Bold-20" x="2458.453125"/>
      <use xlink:href="#DejaVuSans-Bold-76" x="2493.267578"/>
      <use xlink:href="#DejaVuSans-Bold-73" x="2558.453125"/>
      <use xlink:href="#DejaVuSans-Bold-20" x="2617.974609"/>
      <use xlink:href="#DejaVuSans-Bold-32" x="2652.789062"/>
      <use xlink:href="#DejaVuSans-Bold-30" x="2722.369141"/>
      <use xlink:href="#DejaVuSans-Bold-32" x="2791.949219"/>
      <use xlink:href="#DejaVuSans-Bold-35" x="2861.529297"/>
      <use xlink:href="#DejaVuSans-Bold-2d" x="2931.109375"/>
      <use xlink:href="#DejaVuSans-Bold-30" x="2972.613281"/>
      <use xlink:href="#DejaVuSans-Bold-32" x="3042.193359"/>
      <use xlink:href="#DejaVuSans-Bold-20" x="3111.773438"/>
      <use xlink:href="#DejaVuSans-Bold-28" x="3146.587891"/>
      <use xlink:href="#DejaVuSans-Bold-25" x="3192.291016"/>
      <use xlink:href="#DejaVuSans-Bold-29" x="3292.486328"/>
     </g>
    </g>
   </g>
   <g id="line2d_23">
    <path d="M 561.871433 382.718125 
L 561.871433 30.318125 
" clip-path="url(#p0eaeab1531)" style="fill: none; stroke-dasharray: 2.96,1.28; stroke-dashoffset: 0; stroke: #888888; stroke-width: 0.8"/>
   </g>
   <g id="line2d_24">
    <path d="M 46.950469 79.270886 
L 569.612598 79.270886 
" clip-path="url(#p0eaeab1531)" style="fill: none; stroke-dasharray: 2.96,1.28; stroke-dashoffset: 0; stroke: #888888; stroke-width: 0.8"/>
   </g>
   <g id="patch_3">
    <path d="M 46.950469 382.718125 
L 46.950469 30.318125 
" style="fill: none; stroke: #e0e0e0; stroke-width: 0.8; stroke-linejoin: miter; stroke-linecap: square"/>
   </g>
   <g id="patch_4">
    <path d="M 46.950469 382.718125 
L 569.612598 382.718125 
" style="fill: none; stroke: #e0e0e0; stroke-width: 0.8; stroke-linejoin: miter; stroke-linecap: square"/>
   </g>
   <g id="PathCollection_1">
    <defs>
     <path id="m116cd13f82" d="M 0 4.472136 
C 1.186024 4.472136 2.323632 4.000923 3.162278 3.162278 
C 4.000923 2.323632 4.472136 1.186024 4.472136 0 
C 4.472136 -1.186024 4.000923 -2.323632 3.162278 -3.162278 
C 2.323632 -4.000923 1.186024 -4.472136 0 -4.472136 
C -1.186024 -4.472136 -2.323632 -4.000923 -3.162278 -3.162278 
C -4.000923 -2.323632 -4.472136 -1.186024 -4.472136 0 
C -4.472136 1.186024 -4.000923 2.323632 -3.162278 3.162278 
C -2.323632 4.000923 -1.186024 4.472136 0 4.472136 
z
" style="stroke: #ffffff; stroke-width: 1.2"/>
    </defs>
    <g clip-path="url(#p0eaeab1531)">
     <use xlink:href="#m116cd13f82" x="476.451677" y="184.06273" style="fill: #d36b1d; stroke: #ffffff; stroke-width: 1.2"/>
     <use xlink:href="#m116cd13f82" x="401.709391" y="46.336307" style="fill: #d36b1d; stroke: #ffffff; stroke-width: 1.2"/>
     <use xlink:href="#m116cd13f82" x="545.855229" y="285.860521" style="fill: #d36b1d; stroke: #ffffff; stroke-width: 1.2"/>
     <use xlink:href="#m116cd13f82" x="70.707838" y="366.699943" style="fill: #d36b1d; stroke: #ffffff; stroke-width: 1.2"/>
     <use xlink:href="#m116cd13f82" x="412.386861" y="178.074625" style="fill: #d36b1d; stroke: #ffffff; stroke-width: 1.2"/>
     <use xlink:href="#m116cd13f82" x="268.241023" y="115.199518" style="fill: #d36b1d; stroke: #ffffff; stroke-width: 1.2"/>
     <use xlink:href="#m116cd13f82" x="460.435473" y="142.145992" style="fill: #d36b1d; stroke: #ffffff; stroke-width: 1.2"/>
    </g>
   </g>
   <g id="text_14">
    <!-- x = 0 -->
    <g style="fill: #888888" transform="translate(565.871433 38.318125) scale(0.07 -0.07)">
     <defs>
      <path id="DejaVuSans-78" d="M 3513 3500 
L 2247 1797 
L 3578 0 
L 2900 0 
L 1881 1375 
L 863 0 
L 184 0 
L 1544 1831 
L 300 3500 
L 978 3500 
L 1906 2253 
L 2834 3500 
L 3513 3500 
z
" transform="scale(0.015625)"/>
      <path id="DejaVuSans-20" transform="scale(0.015625)"/>
      <path id="DejaVuSans-3d" d="M 678 2906 
L 4684 2906 
L 4684 2381 
L 678 2381 
L 678 2906 
z
M 678 1631 
L 4684 1631 
L 4684 1100 
L 678 1100 
L 678 1631 
z
" transform="scale(0.015625)"/>
     </defs>
     <use xlink:href="#DejaVuSans-78"/>
     <use xlink:href="#DejaVuSans-20" x="59.179688"/>
     <use xlink:href="#DejaVuSans-3d" x="90.966797"/>
     <use xlink:href="#DejaVuSans-20" x="174.755859"/>
     <use xlink:href="#DejaVuSans-30" x="206.542969"/>
    </g>
   </g>
   <g id="text_15">
    <!-- y = 0 -->
    <g style="fill: #888888" transform="translate(546.700567 75.270886) scale(0.07 -0.07)">
     <defs>
      <path id="DejaVuSans-79" d="M 2059 -325 
Q 1816 -950 1584 -1140 
Q 1353 -1331 966 -1331 
L 506 -1331 
L 506 -850 
L 844 -850 
Q 1081 -850 1212 -737 
Q 1344 -625 1503 -206 
L 1606 56 
L 191 3500 
L 800 3500 
L 1894 763 
L 2988 3500 
L 3597 3500 
L 2059 -325 
z
" transform="scale(0.015625)"/>
     </defs>
     <use xlink:href="#DejaVuSans-79"/>
     <use xlink:href="#DejaVuSans-20" x="59.179688"/>
     <use xlink:href="#DejaVuSans-3d" x="90.966797"/>
     <use xlink:href="#DejaVuSans-20" x="174.755859"/>
     <use xlink:href="#DejaVuSans-30" x="206.542969"/>
    </g>
   </g>
   <g id="text_16">
    <!-- DE -->
    <g style="fill: #333333" transform="translate(484.451677 174.191011) scale(0.09 -0.09)">
     <defs>
      <path id="DejaVuSans-44" d="M 1259 4147 
L 1259 519 
L 2022 519 
Q 2988 519 3436 956 
Q 3884 1394 3884 2338 
Q 3884 3275 3436 3711 
Q 2988 4147 2022 4147 
L 1259 4147 
z
M 628 4666 
L 1925 4666 
Q 3281 4666 3915 4102 
Q 4550 3538 4550 2338 
Q 4550 1131 3912 565 
Q 3275 0 1925 0 
L 628 0 
L 628 4666 
z
" transform="scale(0.015625)"/>
      <path id="DejaVuSans-45" d="M 628 4666 
L 3578 4666 
L 3578 4134 
L 1259 4134 
L 1259 2753 
L 3481 2753 
L 3481 2222 
L 1259 2222 
L 1259 531 
L 3634 531 
L 3634 0 
L 628 0 
L 628 4666 
z
" transform="scale(0.015625)"/>
     </defs>
     <use xlink:href="#DejaVuSans-44"/>
     <use xlink:href="#DejaVuSans-45" x="77.001953"/>
    </g>
   </g>
   <g id="text_17">
    <!-- FR -->
    <g style="fill: #333333" transform="translate(409.709391 36.464588) scale(0.09 -0.09)">
     <defs>
      <path id="DejaVuSans-46" d="M 628 4666 
L 3309 4666 
L 3309 4134 
L 1259 4134 
L 1259 2759 
L 3109 2759 
L 3109 2228 
L 1259 2228 
L 1259 0 
L 628 0 
L 628 4666 
z
" transform="scale(0.015625)"/>
      <path id="DejaVuSans-52" d="M 2841 2188 
Q 3044 2119 3236 1894 
Q 3428 1669 3622 1275 
L 4263 0 
L 3584 0 
L 2988 1197 
Q 2756 1666 2539 1819 
Q 2322 1972 1947 1972 
L 1259 1972 
L 1259 0 
L 628 0 
L 628 4666 
L 2053 4666 
Q 2853 4666 3247 4331 
Q 3641 3997 3641 3322 
Q 3641 2881 3436 2590 
Q 3231 2300 2841 2188 
z
M 1259 4147 
L 1259 2491 
L 2053 2491 
Q 2509 2491 2742 2702 
Q 2975 2913 2975 3322 
Q 2975 3731 2742 3939 
Q 2509 4147 2053 4147 
L 1259 4147 
z
" transform="scale(0.015625)"/>
     </defs>
     <use xlink:href="#DejaVuSans-46"/>
     <use xlink:href="#DejaVuSans-52" x="57.519531"/>
    </g>
   </g>
   <g id="text_18">
    <!-- IT -->
    <g style="fill: #333333" transform="translate(553.855229 275.988802) scale(0.09 -0.09)">
     <defs>
      <path id="DejaVuSans-49" d="M 628 4666 
L 1259 4666 
L 1259 0 
L 628 0 
L 628 4666 
z
" transform="scale(0.015625)"/>
      <path id="DejaVuSans-54" d="M -19 4666 
L 3928 4666 
L 3928 4134 
L 2272 4134 
L 2272 0 
L 1638 0 
L 1638 4134 
L -19 4134 
L -19 4666 
z
" transform="scale(0.015625)"/>
     </defs>
     <use xlink:href="#DejaVuSans-49"/>
     <use xlink:href="#DejaVuSans-54" x="29.492188"/>
    </g>
   </g>
   <g id="text_19">
    <!-- NL -->
    <g style="fill: #333333" transform="translate(78.707838 356.828224) scale(0.09 -0.09)">
     <defs>
      <path id="DejaVuSans-4e" d="M 628 4666 
L 1478 4666 
L 3547 763 
L 3547 4666 
L 4159 4666 
L 4159 0 
L 3309 0 
L 1241 3903 
L 1241 0 
L 628 0 
L 628 4666 
z
" transform="scale(0.015625)"/>
      <path id="DejaVuSans-4c" d="M 628 4666 
L 1259 4666 
L 1259 531 
L 3531 531 
L 3531 0 
L 628 0 
L 628 4666 
z
" transform="scale(0.015625)"/>
     </defs>
     <use xlink:href="#DejaVuSans-4e"/>
     <use xlink:href="#DejaVuSans-4c" x="74.804688"/>
    </g>
   </g>
   <g id="text_20">
    <!-- ES -->
    <g style="fill: #333333" transform="translate(420.386861 168.202906) scale(0.09 -0.09)">
     <defs>
      <path id="DejaVuSans-53" d="M 3425 4513 
L 3425 3897 
Q 3066 4069 2747 4153 
Q 2428 4238 2131 4238 
Q 1616 4238 1336 4038 
Q 1056 3838 1056 3469 
Q 1056 3159 1242 3001 
Q 1428 2844 1947 2747 
L 2328 2669 
Q 3034 2534 3370 2195 
Q 3706 1856 3706 1288 
Q 3706 609 3251 259 
Q 2797 -91 1919 -91 
Q 1588 -91 1214 -16 
Q 841 59 441 206 
L 441 856 
Q 825 641 1194 531 
Q 1563 422 1919 422 
Q 2459 422 2753 634 
Q 3047 847 3047 1241 
Q 3047 1584 2836 1778 
Q 2625 1972 2144 2069 
L 1759 2144 
Q 1053 2284 737 2584 
Q 422 2884 422 3419 
Q 422 4038 858 4394 
Q 1294 4750 2059 4750 
Q 2388 4750 2728 4690 
Q 3069 4631 3425 4513 
z
" transform="scale(0.015625)"/>
     </defs>
     <use xlink:href="#DejaVuSans-45"/>
     <use xlink:href="#DejaVuSans-53" x="63.183594"/>
    </g>
   </g>
   <g id="text_21">
    <!-- BE -->
    <g style="fill: #333333" transform="translate(276.241023 105.3278) scale(0.09 -0.09)">
     <defs>
      <path id="DejaVuSans-42" d="M 1259 2228 
L 1259 519 
L 2272 519 
Q 2781 519 3026 730 
Q 3272 941 3272 1375 
Q 3272 1813 3026 2020 
Q 2781 2228 2272 2228 
L 1259 2228 
z
M 1259 4147 
L 1259 2741 
L 2194 2741 
Q 2656 2741 2882 2914 
Q 3109 3088 3109 3444 
Q 3109 3797 2882 3972 
Q 2656 4147 2194 4147 
L 1259 4147 
z
M 628 4666 
L 2241 4666 
Q 2963 4666 3353 4366 
Q 3744 4066 3744 3513 
Q 3744 3084 3544 2831 
Q 3344 2578 2956 2516 
Q 3422 2416 3680 2098 
Q 3938 1781 3938 1306 
Q 3938 681 3513 340 
Q 3088 0 2303 0 
L 628 0 
L 628 4666 
z
" transform="scale(0.015625)"/>
     </defs>
     <use xlink:href="#DejaVuSans-42"/>
     <use xlink:href="#DejaVuSans-45" x="68.603516"/>
    </g>
   </g>
   <g id="text_22">
    <!-- PL -->
    <g style="fill: #333333" transform="translate(468.435473 132.274274) scale(0.09 -0.09)">
     <defs>
      <path id="DejaVuSans-50" d="M 1259 4147 
L 1259 2394 
L 2053 2394 
Q 2494 2394 2734 2622 
Q 2975 2850 2975 3272 
Q 2975 3691 2734 3919 
Q 2494 4147 2053 4147 
L 1259 4147 
z
M 628 4666 
L 2053 4666 
Q 2838 4666 3239 4311 
Q 3641 3956 3641 3272 
Q 3641 2581 3239 2228 
Q 2838 1875 2053 1875 
L 1259 1875 
L 1259 0 
L 628 0 
L 628 4666 
z
" transform="scale(0.015625)"/>
     </defs>
     <use xlink:href="#DejaVuSans-50"/>
     <use xlink:href="#DejaVuSans-4c" x="60.302734"/>
    </g>
   </g>
   <g id="text_23">
    <!-- Demand issue or price issue: country-level chemical price vs volume YoY -->
    <g transform="translate(46.950469 16.318125) scale(0.12 -0.12)">
     <defs>
      <path id="DejaVuSans-Bold-44" d="M 1791 3756 
L 1791 909 
L 2222 909 
Q 2959 909 3348 1275 
Q 3738 1641 3738 2338 
Q 3738 3031 3350 3393 
Q 2963 3756 2222 3756 
L 1791 3756 
z
M 588 4666 
L 1856 4666 
Q 2919 4666 3439 4514 
Q 3959 4363 4331 4000 
Q 4659 3684 4818 3271 
Q 4978 2859 4978 2338 
Q 4978 1809 4818 1395 
Q 4659 981 4331 666 
Q 3956 303 3431 151 
Q 2906 0 1856 0 
L 588 0 
L 588 4666 
z
" transform="scale(0.015625)"/>
      <path id="DejaVuSans-Bold-3a" d="M 716 3500 
L 1844 3500 
L 1844 2291 
L 716 2291 
L 716 3500 
z
M 716 1209 
L 1844 1209 
L 1844 0 
L 716 0 
L 716 1209 
z
" transform="scale(0.015625)"/>
      <path id="DejaVuSans-Bold-79" d="M 78 3500 
L 1197 3500 
L 2138 1125 
L 2938 3500 
L 4056 3500 
L 2584 -331 
Q 2363 -916 2067 -1148 
Q 1772 -1381 1288 -1381 
L 641 -1381 
L 641 -647 
L 991 -647 
Q 1275 -647 1404 -556 
Q 1534 -466 1606 -231 
L 1638 -134 
L 78 3500 
z
" transform="scale(0.015625)"/>
     </defs>
     <use xlink:href="#DejaVuSans-Bold-44"/>
     <use xlink:href="#DejaVuSans-Bold-65" x="83.007812"/>
     <use xlink:href="#DejaVuSans-Bold-6d" x="150.830078"/>
     <use xlink:href="#DejaVuSans-Bold-61" x="255.029297"/>
     <use xlink:href="#DejaVuSans-Bold-6e" x="322.509766"/>
     <use xlink:href="#DejaVuSans-Bold-64" x="393.701172"/>
     <use xlink:href="#DejaVuSans-Bold-20" x="465.283203"/>
     <use xlink:href="#DejaVuSans-Bold-69" x="500.097656"/>
     <use xlink:href="#DejaVuSans-Bold-73" x="534.375"/>
     <use xlink:href="#DejaVuSans-Bold-73" x="593.896484"/>
     <use xlink:href="#DejaVuSans-Bold-75" x="653.417969"/>
     <use xlink:href="#DejaVuSans-Bold-65" x="724.609375"/>
     <use xlink:href="#DejaVuSans-Bold-20" x="792.431641"/>
     <use xlink:href="#DejaVuSans-Bold-6f" x="827.246094"/>
     <use xlink:href="#DejaVuSans-Bold-72" x="895.947266"/>
     <use xlink:href="#DejaVuSans-Bold-20" x="945.263672"/>
     <use xlink:href="#DejaVuSans-Bold-70" x="980.078125"/>
     <use xlink:href="#DejaVuSans-Bold-72" x="1051.660156"/>
     <use xlink:href="#DejaVuSans-Bold-69" x="1100.976562"/>
     <use xlink:href="#DejaVuSans-Bold-63" x="1135.253906"/>
     <use xlink:href="#DejaVuSans-Bold-65" x="1194.53125"/>
     <use xlink:href="#DejaVuSans-Bold-20" x="1262.353516"/>
     <use xlink:href="#DejaVuSans-Bold-69" x="1297.167969"/>
     <use xlink:href="#DejaVuSans-Bold-73" x="1331.445312"/>
     <use xlink:href="#DejaVuSans-Bold-73" x="1390.966797"/>
     <use xlink:href="#DejaVuSans-Bold-75" x="1450.488281"/>
     <use xlink:href="#DejaVuSans-Bold-65" x="1521.679688"/>
     <use xlink:href="#DejaVuSans-Bold-3a" x="1589.501953"/>
     <use xlink:href="#DejaVuSans-Bold-20" x="1629.492188"/>
     <use xlink:href="#DejaVuSans-Bold-63" x="1664.306641"/>
     <use xlink:href="#DejaVuSans-Bold-6f" x="1723.583984"/>
     <use xlink:href="#DejaVuSans-Bold-75" x="1792.285156"/>
     <use xlink:href="#DejaVuSans-Bold-6e" x="1863.476562"/>
     <use xlink:href="#DejaVuSans-Bold-74" x="1934.667969"/>
     <use xlink:href="#DejaVuSans-Bold-72" x="1982.470703"/>
     <use xlink:href="#DejaVuSans-Bold-79" x="2031.787109"/>
     <use xlink:href="#DejaVuSans-Bold-2d" x="2096.972656"/>
     <use xlink:href="#DejaVuSans-Bold-6c" x="2138.476562"/>
     <use xlink:href="#DejaVuSans-Bold-65" x="2172.753906"/>
     <use xlink:href="#DejaVuSans-Bold-76" x="2240.576172"/>
     <use xlink:href="#DejaVuSans-Bold-65" x="2305.761719"/>
     <use xlink:href="#DejaVuSans-Bold-6c" x="2373.583984"/>
     <use xlink:href="#DejaVuSans-Bold-20" x="2407.861328"/>
     <use xlink:href="#DejaVuSans-Bold-63" x="2442.675781"/>
     <use xlink:href="#DejaVuSans-Bold-68" x="2501.953125"/>
     <use xlink:href="#DejaVuSans-Bold-65" x="2573.144531"/>
     <use xlink:href="#DejaVuSans-Bold-6d" x="2640.966797"/>
     <use xlink:href="#DejaVuSans-Bold-69" x="2745.166016"/>
     <use xlink:href="#DejaVuSans-Bold-63" x="2779.443359"/>
     <use xlink:href="#DejaVuSans-Bold-61" x="2838.720703"/>
     <use xlink:href="#DejaVuSans-Bold-6c" x="2906.201172"/>
     <use xlink:href="#DejaVuSans-Bold-20" x="2940.478516"/>
     <use xlink:href="#DejaVuSans-Bold-70" x="2975.292969"/>
     <use xlink:href="#DejaVuSans-Bold-72" x="3046.875"/>
     <use xlink:href="#DejaVuSans-Bold-69" x="3096.191406"/>
     <use xlink:href="#DejaVuSans-Bold-63" x="3130.46875"/>
     <use xlink:href="#DejaVuSans-Bold-65" x="3189.746094"/>
     <use xlink:href="#DejaVuSans-Bold-20" x="3257.568359"/>
     <use xlink:href="#DejaVuSans-Bold-76" x="3292.382812"/>
     <use xlink:href="#DejaVuSans-Bold-73" x="3357.568359"/>
     <use xlink:href="#DejaVuSans-Bold-20" x="3417.089844"/>
     <use xlink:href="#DejaVuSans-Bold-76" x="3451.904297"/>
     <use xlink:href="#DejaVuSans-Bold-6f" x="3517.089844"/>
     <use xlink:href="#DejaVuSans-Bold-6c" x="3585.791016"/>
     <use xlink:href="#DejaVuSans-Bold-75" x="3620.068359"/>
     <use xlink:href="#DejaVuSans-Bold-6d" x="3691.259766"/>
     <use xlink:href="#DejaVuSans-Bold-65" x="3795.458984"/>
     <use xlink:href="#DejaVuSans-Bold-20" x="3863.28125"/>
     <use xlink:href="#DejaVuSans-Bold-59" x="3898.095703"/>
     <use xlink:href="#DejaVuSans-Bold-6f" x="3961.382812"/>
     <use xlink:href="#DejaVuSans-Bold-59" x="4030.083984"/>
    </g>
   </g>
  </g>
  <g id="text_24">
   <!-- Source: Cefic analysis based on Eurostat data (2026) -->
   <g style="fill: #666666" transform="translate(44.556719 435.268125) scale(0.08 -0.08)">
    <defs>
     <path id="DejaVuSans-6f" d="M 1959 3097 
Q 1497 3097 1228 2736 
Q 959 2375 959 1747 
Q 959 1119 1226 758 
Q 1494 397 1959 397 
Q 2419 397 2687 759 
Q 2956 1122 2956 1747 
Q 2956 2369 2687 2733 
Q 2419 3097 1959 3097 
z
M 1959 3584 
Q 2709 3584 3137 3096 
Q 3566 2609 3566 1747 
Q 3566 888 3137 398 
Q 2709 -91 1959 -91 
Q 1206 -91 779 398 
Q 353 888 353 1747 
Q 353 2609 779 3096 
Q 1206 3584 1959 3584 
z
" transform="scale(0.015625)"/>
     <path id="DejaVuSans-75" d="M 544 1381 
L 544 3500 
L 1119 3500 
L 1119 1403 
Q 1119 906 1312 657 
Q 1506 409 1894 409 
Q 2359 409 2629 706 
Q 2900 1003 2900 1516 
L 2900 3500 
L 3475 3500 
L 3475 0 
L 2900 0 
L 2900 538 
Q 2691 219 2414 64 
Q 2138 -91 1772 -91 
Q 1169 -91 856 284 
Q 544 659 544 1381 
z
M 1991 3584 
L 1991 3584 
z
" transform="scale(0.015625)"/>
     <path id="DejaVuSans-72" d="M 2631 2963 
Q 2534 3019 2420 3045 
Q 2306 3072 2169 3072 
Q 1681 3072 1420 2755 
Q 1159 2438 1159 1844 
L 1159 0 
L 581 0 
L 581 3500 
L 1159 3500 
L 1159 2956 
Q 1341 3275 1631 3429 
Q 1922 3584 2338 3584 
Q 2397 3584 2469 3576 
Q 2541 3569 2628 3553 
L 2631 2963 
z
" transform="scale(0.015625)"/>
     <path id="DejaVuSans-63" d="M 3122 3366 
L 3122 2828 
Q 2878 2963 2633 3030 
Q 2388 3097 2138 3097 
Q 1578 3097 1268 2742 
Q 959 2388 959 1747 
Q 959 1106 1268 751 
Q 1578 397 2138 397 
Q 2388 397 2633 464 
Q 2878 531 3122 666 
L 3122 134 
Q 2881 22 2623 -34 
Q 2366 -91 2075 -91 
Q 1284 -91 818 406 
Q 353 903 353 1747 
Q 353 2603 823 3093 
Q 1294 3584 2113 3584 
Q 2378 3584 2631 3529 
Q 2884 3475 3122 3366 
z
" transform="scale(0.015625)"/>
     <path id="DejaVuSans-65" d="M 3597 1894 
L 3597 1613 
L 953 1613 
Q 991 1019 1311 708 
Q 1631 397 2203 397 
Q 2534 397 2845 478 
Q 3156 559 3463 722 
L 3463 178 
Q 3153 47 2828 -22 
Q 2503 -91 2169 -91 
Q 1331 -91 842 396 
Q 353 884 353 1716 
Q 353 2575 817 3079 
Q 1281 3584 2069 3584 
Q 2775 3584 3186 3129 
Q 3597 2675 3597 1894 
z
M 3022 2063 
Q 3016 2534 2758 2815 
Q 2500 3097 2075 3097 
Q 1594 3097 1305 2825 
Q 1016 2553 972 2059 
L 3022 2063 
z
" transform="scale(0.015625)"/>
     <path id="DejaVuSans-3a" d="M 750 794 
L 1409 794 
L 1409 0 
L 750 0 
L 750 794 
z
M 750 3309 
L 1409 3309 
L 1409 2516 
L 750 2516 
L 750 3309 
z
" transform="scale(0.015625)"/>
     <path id="DejaVuSans-43" d="M 4122 4306 
L 4122 3641 
Q 3803 3938 3442 4084 
Q 3081 4231 2675 4231 
Q 1875 4231 1450 3742 
Q 1025 3253 1025 2328 
Q 1025 1406 1450 917 
Q 1875 428 2675 428 
Q 3081 428 3442 575 
Q 3803 722 4122 1019 
L 4122 359 
Q 3791 134 3420 21 
Q 3050 -91 2638 -91 
Q 1578 -91 968 557 
Q 359 1206 359 2328 
Q 359 3453 968 4101 
Q 1578 4750 2638 4750 
Q 3056 4750 3426 4639 
Q 3797 4528 4122 4306 
z
" transform="scale(0.015625)"/>
     <path id="DejaVuSans-66" d="M 2375 4863 
L 2375 4384 
L 1825 4384 
Q 1516 4384 1395 4259 
Q 1275 4134 1275 3809 
L 1275 3500 
L 2222 3500 
L 2222 3053 
L 1275 3053 
L 1275 0 
L 697 0 
L 697 3053 
L 147 3053 
L 147 3500 
L 697 3500 
L 697 3744 
Q 697 4328 969 4595 
Q 1241 4863 1831 4863 
L 2375 4863 
z
" transform="scale(0.015625)"/>
     <path id="DejaVuSans-69" d="M 603 3500 
L 1178 3500 
L 1178 0 
L 603 0 
L 603 3500 
z
M 603 4863 
L 1178 4863 
L 1178 4134 
L 603 4134 
L 603 4863 
z
" transform="scale(0.015625)"/>
     <path id="DejaVuSans-61" d="M 2194 1759 
Q 1497 1759 1228 1600 
Q 959 1441 959 1056 
Q 959 750 1161 570 
Q 1363 391 1709 391 
Q 2188 391 2477 730 
Q 2766 1069 2766 1631 
L 2766 1759 
L 2194 1759 
z
M 3341 1997 
L 3341 0 
L 2766 0 
L 2766 531 
Q 2569 213 2275 61 
Q 1981 -91 1556 -91 
Q 1019 -91 701 211 
Q 384 513 384 1019 
Q 384 1609 779 1909 
Q 1175 2209 1959 2209 
L 2766 2209 
L 2766 2266 
Q 2766 2663 2505 2880 
Q 2244 3097 1772 3097 
Q 1472 3097 1187 3025 
Q 903 2953 641 2809 
L 641 3341 
Q 956 3463 1253 3523 
Q 1550 3584 1831 3584 
Q 2591 3584 2966 3190 
Q 3341 2797 3341 1997 
z
" transform="scale(0.015625)"/>
     <path id="DejaVuSans-6e" d="M 3513 2113 
L 3513 0 
L 2938 0 
L 2938 2094 
Q 2938 2591 2744 2837 
Q 2550 3084 2163 3084 
Q 1697 3084 1428 2787 
Q 1159 2491 1159 1978 
L 1159 0 
L 581 0 
L 581 3500 
L 1159 3500 
L 1159 2956 
Q 1366 3272 1645 3428 
Q 1925 3584 2291 3584 
Q 2894 3584 3203 3211 
Q 3513 2838 3513 2113 
z
" transform="scale(0.015625)"/>
     <path id="DejaVuSans-6c" d="M 603 4863 
L 1178 4863 
L 1178 0 
L 603 0 
L 603 4863 
z
" transform="scale(0.015625)"/>
     <path id="DejaVuSans-73" d="M 2834 3397 
L 2834 2853 
Q 2591 2978 2328 3040 
Q 2066 3103 1784 3103 
Q 1356 3103 1142 2972 
Q 928 2841 928 2578 
Q 928 2378 1081 2264 
Q 1234 2150 1697 2047 
L 1894 2003 
Q 2506 1872 2764 1633 
Q 3022 1394 3022 966 
Q 3022 478 2636 193 
Q 2250 -91 1575 -91 
Q 1294 -91 989 -36 
Q 684 19 347 128 
L 347 722 
Q 666 556 975 473 
Q 1284 391 1588 391 
Q 1994 391 2212 530 
Q 2431 669 2431 922 
Q 2431 1156 2273 1281 
Q 2116 1406 1581 1522 
L 1381 1569 
Q 847 1681 609 1914 
Q 372 2147 372 2553 
Q 372 3047 722 3315 
Q 1072 3584 1716 3584 
Q 2034 3584 2315 3537 
Q 2597 3491 2834 3397 
z
" transform="scale(0.015625)"/>
     <path id="DejaVuSans-62" d="M 3116 1747 
Q 3116 2381 2855 2742 
Q 2594 3103 2138 3103 
Q 1681 3103 1420 2742 
Q 1159 2381 1159 1747 
Q 1159 1113 1420 752 
Q 1681 391 2138 391 
Q 2594 391 2855 752 
Q 3116 1113 3116 1747 
z
M 1159 2969 
Q 1341 3281 1617 3432 
Q 1894 3584 2278 3584 
Q 2916 3584 3314 3078 
Q 3713 2572 3713 1747 
Q 3713 922 3314 415 
Q 2916 -91 2278 -91 
Q 1894 -91 1617 61 
Q 1341 213 1159 525 
L 1159 0 
L 581 0 
L 581 4863 
L 1159 4863 
L 1159 2969 
z
" transform="scale(0.015625)"/>
     <path id="DejaVuSans-64" d="M 2906 2969 
L 2906 4863 
L 3481 4863 
L 3481 0 
L 2906 0 
L 2906 525 
Q 2725 213 2448 61 
Q 2172 -91 1784 -91 
Q 1150 -91 751 415 
Q 353 922 353 1747 
Q 353 2572 751 3078 
Q 1150 3584 1784 3584 
Q 2172 3584 2448 3432 
Q 2725 3281 2906 2969 
z
M 947 1747 
Q 947 1113 1208 752 
Q 1469 391 1925 391 
Q 2381 391 2643 752 
Q 2906 1113 2906 1747 
Q 2906 2381 2643 2742 
Q 2381 3103 1925 3103 
Q 1469 3103 1208 2742 
Q 947 2381 947 1747 
z
" transform="scale(0.015625)"/>
     <path id="DejaVuSans-74" d="M 1172 4494 
L 1172 3500 
L 2356 3500 
L 2356 3053 
L 1172 3053 
L 1172 1153 
Q 1172 725 1289 603 
Q 1406 481 1766 481 
L 2356 481 
L 2356 0 
L 1766 0 
Q 1100 0 847 248 
Q 594 497 594 1153 
L 594 3053 
L 172 3053 
L 172 3500 
L 594 3500 
L 594 4494 
L 1172 4494 
z
" transform="scale(0.015625)"/>
     <path id="DejaVuSans-28" d="M 1984 4856 
Q 1566 4138 1362 3434 
Q 1159 2731 1159 2009 
Q 1159 1288 1364 580 
Q 1569 -128 1984 -844 
L 1484 -844 
Q 1016 -109 783 600 
Q 550 1309 550 2009 
Q 550 2706 781 3412 
Q 1013 4119 1484 4856 
L 1984 4856 
z
" transform="scale(0.015625)"/>
     <path id="DejaVuSans-29" d="M 513 4856 
L 1013 4856 
Q 1481 4119 1714 3412 
Q 1947 2706 1947 2009 
Q 1947 1309 1714 600 
Q 1481 -109 1013 -844 
L 513 -844 
Q 928 -128 1133 580 
Q 1338 1288 1338 2009 
Q 1338 2731 1133 3434 
Q 928 4138 513 4856 
z
" transform="scale(0.015625)"/>
    </defs>
    <use xlink:href="#DejaVuSans-53"/>
    <use xlink:href="#DejaVuSans-6f" x="63.476562"/>
    <use xlink:href="#DejaVuSans-75" x="124.658203"/>
    <use xlink:href="#DejaVuSans-72" x="188.037109"/>
    <use xlink:href="#DejaVuSans-63" x="226.900391"/>
    <use xlink:href="#DejaVuSans-65" x="281.880859"/>
    <use xlink:href="#DejaVuSans-3a" x="343.404297"/>
    <use xlink:href="#DejaVuSans-20" x="377.095703"/>
    <use xlink:href="#DejaVuSans-43" x="408.882812"/>
    <use xlink:href="#DejaVuSans-65" x="478.707031"/>
    <use xlink:href="#DejaVuSans-66" x="540.230469"/>
    <use xlink:href="#DejaVuSans-69" x="575.435547"/>
    <use xlink:href="#DejaVuSans-63" x="603.21875"/>
    <use xlink:href="#DejaVuSans-20" x="658.199219"/>
    <use xlink:href="#DejaVuSans-61" x="689.986328"/>
    <use xlink:href="#DejaVuSans-6e" x="751.265625"/>
    <use xlink:href="#DejaVuSans-61" x="814.644531"/>
    <use xlink:href="#DejaVuSans-6c" x="875.923828"/>
    <use xlink:href="#DejaVuSans-79" x="903.707031"/>
    <use xlink:href="#DejaVuSans-73" x="962.886719"/>
    <use xlink:href="#DejaVuSans-69" x="1014.986328"/>
    <use xlink:href="#DejaVuSans-73" x="1042.769531"/>
    <use xlink:href="#DejaVuSans-20" x="1094.869141"/>
    <use xlink:href="#DejaVuSans-62" x="1126.65625"/>
    <use xlink:href="#DejaVuSans-61" x="1190.132812"/>
    <use xlink:href="#DejaVuSans-73" x="1251.412109"/>
    <use xlink:href="#DejaVuSans-65" x="1303.511719"/>
    <use xlink:href="#DejaVuSans-64" x="1365.035156"/>
    <use xlink:href="#DejaVuSans-20" x="1428.511719"/>
    <use xlink:href="#DejaVuSans-6f" x="1460.298828"/>
    <use xlink:href="#DejaVuSans-6e" x="1521.480469"/>
    <use xlink:href="#DejaVuSans-20" x="1584.859375"/>
    <use xlink:href="#DejaVuSans-45" x="1616.646484"/>
    <use xlink:href="#DejaVuSans-75" x="1679.830078"/>
    <use xlink:href="#DejaVuSans-72" x="1743.208984"/>
    <use xlink:href="#DejaVuSans-6f" x="1782.072266"/>
    <use xlink:href="#DejaVuSans-73" x="1843.253906"/>
    <use xlink:href="#DejaVuSans-74" x="1895.353516"/>
    <use xlink:href="#DejaVuSans-61" x="1934.5625"/>
    <use xlink:href="#DejaVuSans-74" x="1995.841797"/>
    <use xlink:href="#DejaVuSans-20" x="2035.050781"/>
    <use xlink:href="#DejaVuSans-64" x="2066.837891"/>
    <use xlink:href="#DejaVuSans-61" x="2130.314453"/>
    <use xlink:href="#DejaVuSans-74" x="2191.59375"/>
    <use xlink:href="#DejaVuSans-61" x="2230.802734"/>
    <use xlink:href="#DejaVuSans-20" x="2292.082031"/>
    <use xlink:href="#DejaVuSans-28" x="2323.869141"/>
    <use xlink:href="#DejaVuSans-32" x="2362.882812"/>
    <use xlink:href="#DejaVuSans-30" x="2426.505859"/>
    <use xlink:href="#DejaVuSans-32" x="2490.128906"/>
    <use xlink:href="#DejaVuSans-36" x="2553.751953"/>
    <use xlink:href="#DejaVuSans-29" x="2617.375"/>
   </g>
  </g>
 </g>
 <defs>
  <clipPath id="p0eaeab1531">
   <rect x="46.950469" y="30.318125" width="522.66213" height="352.4"/>
  </clipPath>
 </defs>
</svg>
